<svg xmlns="http://www.w3.org/2000/svg" viewBox="0 0 109.06 96"><defs><style>.a6f8febc-00a0-4ba6-868c-5e03e9b10e06{fill:#274c78;}.e4bc1020-34c2-43e5-b239-9bae0f286a34{fill:#a4cef2;}.a08cb0ff-8162-4054-b038-a428648530b9{fill:#6096bb;}</style></defs><g id="a0043427-852c-4e43-acee-0e9d0c0fa5df" data-name="Layer 2"><g id="ae66843f-a5e3-4eb2-9b42-a2690021d473" data-name="Layer 1"><path class="a6f8febc-00a0-4ba6-868c-5e03e9b10e06" d="M100,72.79,79.71,37.94,59.44,3.09a6.25,6.25,0,0,0-10.78,0L41.39,16a6.42,6.42,0,0,1,10.48,1.13L63.32,37.28,78.66,63.66a4.67,4.67,0,0,1-4.07,7H39l-2.07,3.56s-2.16,3-.58,5.57c1.69,2.81,5.83,2.25,5.83,2.25H94.59A6.17,6.17,0,0,0,100,72.79Z"/><path class="e4bc1020-34c2-43e5-b239-9bae0f286a34" d="M22.08,96l40.4-.11,40.4-.1a6.19,6.19,0,0,0,5.33-9.31l-7.68-12.72a6.34,6.34,0,0,1-6.15,8.48l-23.23-.16-30.58.08a4.69,4.69,0,0,1-4.09-7L51.64,48.65l2.73-4.56-2.09-3.56s-1.47-3.16-4.52-3.16c-3.68,0-5.17,4.07-5.17,4.07L36.7,51.73,16.34,86.34C14,90.48,17.31,96,22.08,96Z"/><path class="a08cb0ff-8162-4054-b038-a428648530b9" d="M41,16.8,20.9,51.67.8,86.55C-1.58,90.67,1.67,96,6.43,96H21.72c-5.95-.85-7.08-6.51-5-9.9L28.47,66.14,43.69,39.75a4.67,4.67,0,0,1,8.1,0L67,66.25l2.46,4.52h4.11s3.64.14,5.11-2.52c1.59-2.86-1-6.15-1-6.15L71.85,51.82l-20.15-35A6.17,6.17,0,0,0,41,16.8Z"/></g></g></svg>