<svg xmlns="http://www.w3.org/2000/svg" viewBox="0 0 88.07 41.76"><defs><style>.b162d49c-8254-4267-b074-56924dece862{fill:#7c7c7c;}</style></defs><g id="bc26c2c5-b5b0-44c7-9e56-0d6ff023a309" data-name="Layer 2"><g id="ebc61fe8-81c2-46c6-8095-2fe9d824ab8b" data-name="Layer 1"><path class="b162d49c-8254-4267-b074-56924dece862" d="M5.08,5.78a6,6,0,0,1,.35-2.12,4.41,4.41,0,0,1,1-1.52,4.11,4.11,0,0,1,1.43-.93A5,5,0,0,1,9.56.9a4.89,4.89,0,0,1,1.71.31,4,4,0,0,1,1.4.93,4.27,4.27,0,0,1,1,1.52A6,6,0,0,1,14,5.78a5.94,5.94,0,0,1-.35,2.11,4.41,4.41,0,0,1-1,1.53,3.84,3.84,0,0,1-1.4.92,4.67,4.67,0,0,1-1.71.31,4.74,4.74,0,0,1-1.73-.31A4,4,0,0,1,6.4,9.42a4.56,4.56,0,0,1-1-1.53A5.94,5.94,0,0,1,5.08,5.78Zm1.37,0a5,5,0,0,0,.22,1.54A3.3,3.3,0,0,0,7.28,8.5a2.76,2.76,0,0,0,1,.75,3.13,3.13,0,0,0,1.29.26,3,3,0,0,0,1.27-.26,2.85,2.85,0,0,0,1-.75,3.47,3.47,0,0,0,.61-1.18,5.3,5.3,0,0,0,.22-1.54,5.25,5.25,0,0,0-.22-1.54,3.38,3.38,0,0,0-.61-1.18,2.73,2.73,0,0,0-1-.75,3,3,0,0,0-1.27-.26,3.13,3.13,0,0,0-1.29.26,2.65,2.65,0,0,0-1,.75,3.22,3.22,0,0,0-.61,1.18A4.94,4.94,0,0,0,6.45,5.78Z"/><path class="b162d49c-8254-4267-b074-56924dece862" d="M18.44,3.3l.37,0,.41.05.37.07.25.06-.22,1.09c-.1,0-.26-.08-.49-.13a5.13,5.13,0,0,0-.88-.07,4,4,0,0,0-.69.07l-.46.11v5.88H15.85V3.74q.45-.15,1.11-.3A7.37,7.37,0,0,1,18.44,3.3Z"/><path class="b162d49c-8254-4267-b074-56924dece862" d="M25.44,9.75a3.21,3.21,0,0,1-.62.28,3.28,3.28,0,0,1-1.09.17A3.35,3.35,0,0,1,22.54,10a2.6,2.6,0,0,1-1-.62,3.08,3.08,0,0,1-.66-1.06,4.23,4.23,0,0,1-.24-1.51,4.25,4.25,0,0,1,.23-1.41,3.06,3.06,0,0,1,1.74-1.83,3.74,3.74,0,0,1,1.42-.26,7.59,7.59,0,0,1,1.53.13c.44.08.8.16,1.1.23V9.91a3,3,0,0,1-.83,2.35,3.81,3.81,0,0,1-2.54.72,7,7,0,0,1-1.24-.1,8.35,8.35,0,0,1-1-.26l.23-1.09a5.16,5.16,0,0,0,.92.26,5.38,5.38,0,0,0,1.14.12A2.35,2.35,0,0,0,25,11.46a1.8,1.8,0,0,0,.49-1.41Zm0-5.2c-.13,0-.3-.07-.51-.1a6.14,6.14,0,0,0-.85,0,1.91,1.91,0,0,0-1.56.66A2.7,2.7,0,0,0,22,6.82a3.11,3.11,0,0,0,.15,1,2.11,2.11,0,0,0,.42.72,1.69,1.69,0,0,0,.61.41,1.86,1.86,0,0,0,.7.14A3,3,0,0,0,24.77,9a2.52,2.52,0,0,0,.66-.33Z"/><path class="b162d49c-8254-4267-b074-56924dece862" d="M31.1,3.27a3.6,3.6,0,0,1,1.27.2,2,2,0,0,1,.84.55,2.11,2.11,0,0,1,.45.85A4.1,4.1,0,0,1,33.79,6v4.38l-.45.07a5.37,5.37,0,0,1-.65.09l-.79.08-.84,0A4.61,4.61,0,0,1,30,10.48a2.5,2.5,0,0,1-.86-.38,1.7,1.7,0,0,1-.57-.7,2.36,2.36,0,0,1-.2-1,2.07,2.07,0,0,1,.23-1,1.9,1.9,0,0,1,.64-.68,3,3,0,0,1,.95-.37,5.15,5.15,0,0,1,1.13-.12,2.68,2.68,0,0,1,.39,0l.38,0,.32.06.19,0V6a3.08,3.08,0,0,0-.07-.61,1.65,1.65,0,0,0-.24-.54,1.31,1.31,0,0,0-.48-.38A2,2,0,0,0,31,4.35a5.74,5.74,0,0,0-1.08.09,4.56,4.56,0,0,0-.7.18l-.15-1a4.52,4.52,0,0,1,.81-.21A7.85,7.85,0,0,1,31.1,3.27Zm.11,6.28.78,0a4,4,0,0,0,.58-.07V7.37a1.41,1.41,0,0,0-.44-.12,5.16,5.16,0,0,0-.73,0,4.22,4.22,0,0,0-.6,0,1.71,1.71,0,0,0-.58.16,1.39,1.39,0,0,0-.44.35.92.92,0,0,0-.18.59,1,1,0,0,0,.43.94A2.32,2.32,0,0,0,31.21,9.55Z"/><path class="b162d49c-8254-4267-b074-56924dece862" d="M35.87,3.65c.28-.07.67-.15,1.14-.23a10.08,10.08,0,0,1,1.64-.12A3.5,3.5,0,0,1,40,3.54a2,2,0,0,1,.88.66,2.55,2.55,0,0,1,.47,1,5.94,5.94,0,0,1,.13,1.31v3.93H40.27V6.79a5.93,5.93,0,0,0-.09-1.11,1.85,1.85,0,0,0-.29-.74,1.14,1.14,0,0,0-.53-.41,2.56,2.56,0,0,0-.84-.13l-.42,0-.41,0-.35,0-.22,0v5.91H35.87Z"/><path class="b162d49c-8254-4267-b074-56924dece862" d="M44.22,2.18A.81.81,0,0,1,43.64,2a.81.81,0,0,1-.23-.6.81.81,0,0,1,.23-.6.86.86,0,0,1,1.15,0,.78.78,0,0,1,.24.6.78.78,0,0,1-.24.6A.8.8,0,0,1,44.22,2.18Zm.63,8.27H43.6v-7h1.25Z"/><path class="b162d49c-8254-4267-b074-56924dece862" d="M51.65,4.39c-.19.21-.44.5-.75.88s-.64.79-1,1.25S49.2,7.46,48.84,8s-.66,1-.93,1.44h3.85v1H46.41V9.62c.22-.4.48-.83.8-1.31s.64-1,1-1.42.68-.92,1-1.33.61-.77.85-1.06H46.6v-1h5Z"/><path class="b162d49c-8254-4267-b074-56924dece862" d="M55.61,3.27a3.6,3.6,0,0,1,1.27.2,2,2,0,0,1,.84.55,2.11,2.11,0,0,1,.45.85A4.09,4.09,0,0,1,58.31,6v4.38l-.46.07a5.37,5.37,0,0,1-.65.09l-.79.08-.84,0a4.67,4.67,0,0,1-1.09-.12,2.5,2.5,0,0,1-.86-.38,1.87,1.87,0,0,1-.57-.7,2.5,2.5,0,0,1-.2-1,2,2,0,0,1,.24-1,1.82,1.82,0,0,1,.64-.68,2.93,2.93,0,0,1,.94-.37A5.15,5.15,0,0,1,55.8,6.2a2.55,2.55,0,0,1,.39,0l.38,0,.32.06.19,0V6A2.48,2.48,0,0,0,57,5.41a1.26,1.26,0,0,0-.72-.92,1.93,1.93,0,0,0-.79-.14,5.74,5.74,0,0,0-1.08.09,4.09,4.09,0,0,0-.69.18l-.15-1a4.08,4.08,0,0,1,.81-.21A7.62,7.62,0,0,1,55.61,3.27Zm.11,6.28.79,0a3.68,3.68,0,0,0,.57-.07V7.37a1.41,1.41,0,0,0-.44-.12,5.07,5.07,0,0,0-.73,0,4.22,4.22,0,0,0-.6,0,1.77,1.77,0,0,0-.58.16,1.39,1.39,0,0,0-.44.35.92.92,0,0,0-.17.59,1,1,0,0,0,.43.94A2.28,2.28,0,0,0,55.72,9.55Z"/><path class="b162d49c-8254-4267-b074-56924dece862" d="M63.42,10.61a3.76,3.76,0,0,1-1.48-.27,3,3,0,0,1-1.08-.75,3.27,3.27,0,0,1-.66-1.15A5,5,0,0,1,60,7a4.64,4.64,0,0,1,.23-1.48,3.4,3.4,0,0,1,.67-1.16A2.93,2.93,0,0,1,62,3.55a3.48,3.48,0,0,1,1.39-.28,6.09,6.09,0,0,1,1,.08,4.64,4.64,0,0,1,.9.26l-.28,1.06a2.84,2.84,0,0,0-.66-.21,3.36,3.36,0,0,0-.79-.08A2,2,0,0,0,61.85,5,2.91,2.91,0,0,0,61.3,7a4.18,4.18,0,0,0,.12,1,2.14,2.14,0,0,0,.41.81,1.84,1.84,0,0,0,.7.52,2.76,2.76,0,0,0,1.06.18,3.59,3.59,0,0,0,.9-.1,3.14,3.14,0,0,0,.63-.2l.18,1a1.31,1.31,0,0,1-.31.13,4.46,4.46,0,0,1-.46.11l-.55.08Z"/><path class="b162d49c-8254-4267-b074-56924dece862" d="M67.26,2.18A.8.8,0,0,1,66.69,2a.78.78,0,0,1-.24-.6.78.78,0,0,1,.24-.6.8.8,0,0,1,.57-.22.77.77,0,0,1,.57.22.78.78,0,0,1,.24.6.78.78,0,0,1-.24.6A.77.77,0,0,1,67.26,2.18Zm.64,8.27H66.64v-7H67.9Z"/><path class="b162d49c-8254-4267-b074-56924dece862" d="M76.23,7A4.47,4.47,0,0,1,76,8.46a3.52,3.52,0,0,1-.68,1.16,3,3,0,0,1-1,.74,3.25,3.25,0,0,1-1.32.27,3.18,3.18,0,0,1-1.32-.27,2.9,2.9,0,0,1-1-.74,3.52,3.52,0,0,1-.68-1.16A4.47,4.47,0,0,1,69.66,7a4.45,4.45,0,0,1,.24-1.5,3.47,3.47,0,0,1,.68-1.17,2.9,2.9,0,0,1,1-.74A3.18,3.18,0,0,1,73,3.27a3.25,3.25,0,0,1,1.32.27,3,3,0,0,1,1,.74A3.47,3.47,0,0,1,76,5.45,4.45,4.45,0,0,1,76.23,7Zm-1.3,0a3,3,0,0,0-.54-1.88A1.71,1.71,0,0,0,73,4.38a1.73,1.73,0,0,0-1.45.69A3,3,0,0,0,71,7a3,3,0,0,0,.53,1.88A1.73,1.73,0,0,0,73,9.52a1.71,1.71,0,0,0,1.44-.69A3,3,0,0,0,74.93,7ZM74.58.79l-1.9,1.85L72,2.07,73.77,0Z"/><path class="b162d49c-8254-4267-b074-56924dece862" d="M78,3.65c.28-.07.67-.15,1.14-.23a10.08,10.08,0,0,1,1.64-.12,3.5,3.5,0,0,1,1.39.24,2,2,0,0,1,.88.66,2.55,2.55,0,0,1,.47,1,5.94,5.94,0,0,1,.13,1.31v3.93H82.4V6.79a5.93,5.93,0,0,0-.09-1.11A1.85,1.85,0,0,0,82,4.94a1.14,1.14,0,0,0-.53-.41,2.56,2.56,0,0,0-.84-.13l-.42,0-.41,0-.35,0-.22,0v5.91H78Z"/><path class="b162d49c-8254-4267-b074-56924dece862" d="M20.56,41.19c-.43-1.14-.83-2.26-1.21-3.36s-.78-2.23-1.18-3.37H6.23L3.84,41.19H0c1-2.79,2-5.36,2.85-7.73s1.76-4.62,2.6-6.75,1.7-4.16,2.53-6.1,1.71-3.86,2.63-5.76H14q1.37,2.85,2.62,5.76t2.53,6.1q1.27,3.2,2.6,6.75c.89,2.37,1.84,4.94,2.85,7.73Zm-3.45-9.77c-.82-2.2-1.62-4.34-2.42-6.4S13.06,21,12.2,19.07Q10.87,21.92,9.67,25c-.79,2.06-1.59,4.2-2.37,6.4Z"/><path class="b162d49c-8254-4267-b074-56924dece862" d="M35.24,21c.3,0,.65,0,1,0s.78.09,1.16.16.73.12,1.05.19a6,6,0,0,1,.7.17l-.61,3.08a10.4,10.4,0,0,0-1.39-.36,12,12,0,0,0-2.49-.21,9.17,9.17,0,0,0-2,.21c-.65.13-1.07.23-1.28.28V41.19H27.94V22.26a23.23,23.23,0,0,1,3.12-.85A19.71,19.71,0,0,1,35.24,21Z"/><path class="b162d49c-8254-4267-b074-56924dece862" d="M44.36,17.85a2.33,2.33,0,0,1-1.62-.62,2.24,2.24,0,0,1-.66-1.7,2.22,2.22,0,0,1,.66-1.69,2.29,2.29,0,0,1,1.62-.63,2.25,2.25,0,0,1,1.61.63,2.19,2.19,0,0,1,.67,1.69,2.21,2.21,0,0,1-.67,1.7A2.28,2.28,0,0,1,44.36,17.85Zm1.79,23.34H42.61V21.43h3.54Z"/><path class="b162d49c-8254-4267-b074-56924dece862" d="M58.61,20.93a10.48,10.48,0,0,1,3.6.55A5.84,5.84,0,0,1,64.56,23a5.92,5.92,0,0,1,1.28,2.4,11.65,11.65,0,0,1,.38,3.06V40.85l-1.28.21c-.54.09-1.16.17-1.84.25s-1.43.14-2.23.2-1.59.1-2.37.1a12.92,12.92,0,0,1-3.08-.34A6.76,6.76,0,0,1,53,40.18a4.87,4.87,0,0,1-1.6-2,6.87,6.87,0,0,1-.57-2.93,5.54,5.54,0,0,1,.67-2.81,5.21,5.21,0,0,1,1.8-1.9A8.48,8.48,0,0,1,56,29.52a14.47,14.47,0,0,1,3.2-.34,10.56,10.56,0,0,1,1.1.06c.38,0,.74.09,1.08.15l.89.17.54.11v-1A8.34,8.34,0,0,0,62.57,27a4,4,0,0,0-.69-1.52,3.46,3.46,0,0,0-1.35-1.07,5.38,5.38,0,0,0-2.22-.4,16.17,16.17,0,0,0-3.06.25,10.85,10.85,0,0,0-2,.51l-.42-2.92a10.56,10.56,0,0,1,2.28-.59A19.76,19.76,0,0,1,58.61,20.93Zm.31,17.71c.83,0,1.57,0,2.22,0a10.05,10.05,0,0,0,1.62-.21V32.49a4.53,4.53,0,0,0-1.24-.33A15,15,0,0,0,59.45,32a14.5,14.5,0,0,0-1.69.11,5.39,5.39,0,0,0-1.64.48,3.5,3.5,0,0,0-1.23,1,2.6,2.6,0,0,0-.5,1.65,2.83,2.83,0,0,0,1.22,2.64A6.27,6.27,0,0,0,58.92,38.64Z"/><path class="b162d49c-8254-4267-b074-56924dece862" d="M78.42,38.57q5.77,0,5.77-4a4,4,0,0,0-.51-2.08,4.87,4.87,0,0,0-1.39-1.48,9.19,9.19,0,0,0-2-1.08c-.75-.31-1.54-.61-2.38-.91a24,24,0,0,1-2.73-1.13,9.34,9.34,0,0,1-2.25-1.48,6.42,6.42,0,0,1-1.5-2,6.68,6.68,0,0,1-.55-2.85,6.61,6.61,0,0,1,2.36-5.4,10,10,0,0,1,6.5-1.94,17.31,17.31,0,0,1,4.35.51A10.1,10.1,0,0,1,87,15.88l-1.18,3a10.43,10.43,0,0,0-2.37-1,12.71,12.71,0,0,0-3.67-.48,8.27,8.27,0,0,0-2,.23,4.94,4.94,0,0,0-1.6.69,3.43,3.43,0,0,0-1.08,1.16,3.25,3.25,0,0,0-.4,1.65A3.54,3.54,0,0,0,75.11,23a4.16,4.16,0,0,0,1.18,1.27,10.16,10.16,0,0,0,1.77,1c.67.3,1.41.6,2.22.91,1.14.45,2.19.91,3.14,1.37a10.18,10.18,0,0,1,2.47,1.63A6.72,6.72,0,0,1,87.5,31.4a8,8,0,0,1,.57,3.18,6.21,6.21,0,0,1-2.53,5.32c-1.68,1.24-4.06,1.86-7.12,1.86a18.15,18.15,0,0,1-2.87-.21,21.13,21.13,0,0,1-2.34-.49,13.39,13.39,0,0,1-1.77-.61c-.49-.21-.88-.4-1.16-.55l1.1-3A16.22,16.22,0,0,0,74.05,38,13.5,13.5,0,0,0,78.42,38.57Z"/></g></g></svg>